# xmcd CD database file
#
# Track frame offsets:
#	150
#	23381
#	41967
#	59561
#	76057
#	92679
#	119661
#
# Disc length: 1783 seconds
#
# Revision: 2
# Processed by: cddbd v1.5.2PL0 Copyright (c) Steve Scherf et al.
# Submitted via: CDex 1.70beta2
#
DISCID=5306f507
DTITLE=SQUARE ENIX - クリスマス・コレクションズ music from SQUARE ENIX
DYEAR=2010
DGENRE=Game
TTITLE0=Jeuno -Starlight Celebration
TTITLE1=CAPTAIN SQUARE～星屑のキャプテン - X'mas Edit
TTITLE2=ゴールドソーサー～空駆けるハイウインド - X'mas Edit
TTITLE3=魔法都市 ジオ - X'mas Edit
TTITLE4=風の憧憬 - X'mas Edit
TTITLE5=Botshaft - Post Production Mitsuto Suzuki Mix
TTITLE6=チョコボのハッピークリスマス
EXTD=YEAR: 2010
EXTT0=
EXTT1=
EXTT2=
EXTT3=
EXTT4=
EXTT5=
EXTT6=
PLAYORDER=
